<?xml version="1.0" standalone="no"?>
<!DOCTYPE svg PUBLIC "-//W3C//DTD SVG 20010904//EN"
 "http://www.w3.org/TR/2001/REC-SVG-20010904/DTD/svg10.dtd">
<svg version="1.0" xmlns="http://www.w3.org/2000/svg"
 width="314.000000pt" height="314.000000pt" viewBox="0 0 314.000000 314.000000"
 preserveAspectRatio="xMidYMid meet">
<metadata>
Created by potrace 1.14, written by Peter Selinger 2001-2017
</metadata>
<g transform="translate(0.000000,314.000000) scale(0.100000,-0.100000)"
fill="#000000" stroke="none">
<path d="M955 2734 c-131 -65 -200 -119 -326 -252 -8 -10 -32 -43 -53 -75
-107 -165 -159 -394 -136 -604 4 -33 2 -60 -4 -67 -6 -8 -44 -33 -84 -56 l-74
-43 71 -66 c39 -36 71 -69 71 -72 0 -4 -31 -17 -69 -30 -82 -26 -88 -8 57
-178 l22 -26 -37 -17 c-50 -22 -75 -30 -90 -29 -38 5 -13 -63 40 -103 18 -14
43 -27 57 -30 38 -7 283 -92 369 -128 42 -17 116 -58 164 -90 49 -32 90 -58
93 -58 4 0 199 -131 304 -204 78 -55 153 -134 175 -185 43 -98 76 -98 126 1
32 64 71 106 154 168 67 49 306 210 313 210 3 0 19 10 36 23 122 91 235 143
503 231 145 49 179 69 206 122 l16 31 -72 25 c-40 14 -72 30 -72 35 0 10 53
76 108 134 15 16 27 34 27 39 0 4 -32 19 -71 32 l-72 24 44 42 c24 23 57 53
73 66 16 13 26 28 22 34 -3 6 -39 29 -79 53 l-72 42 -1 166 c0 139 -4 179 -22
249 -27 100 -69 195 -121 271 -48 70 -160 191 -178 191 -7 0 -13 4 -13 9 0 21
-252 161 -290 161 -7 0 -9 -34 -5 -107 8 -152 9 -485 1 -568 -8 -91 -25 -164
-43 -193 l-15 -24 -22 21 c-12 12 -25 21 -29 21 -3 0 -29 13 -56 30 -28 16
-90 44 -138 61 -76 28 -102 32 -188 33 -109 1 -167 -13 -277 -63 -76 -36 -142
-73 -146 -83 -2 -5 -12 -8 -22 -8 -26 0 -42 52 -59 190 -8 59 -5 582 2 657 5
42 -9 40 -118 -13z"/>
</g>
</svg>
