<svg xmlns="http://www.w3.org/2000/svg" version="1.1" xmlns:xlink="http://www.w3.org/1999/xlink" xmlns:svgjs="http://svgjs.dev/svgjs" width="1500" height="367" viewBox="0 0 1500 367"><g transform="matrix(1,0,0,1,-0.9090909090909918,-0.5484657572179401)"><svg viewBox="0 0 396 97" data-background-color="#ffffff" preserveAspectRatio="xMidYMid meet" height="367" width="1500" xmlns="http://www.w3.org/2000/svg" xmlns:xlink="http://www.w3.org/1999/xlink"><g id="tight-bounds" transform="matrix(1,0,0,1,0.2400000000000091,0.14496233910119827)"><svg viewBox="0 0 395.52 96.71007532179763" height="96.71007532179763" width="395.52"><g><svg viewBox="0 0 556.1871309175011 135.9953967537572" height="96.71007532179763" width="395.52"><g transform="matrix(1,0,0,1,160.66713091750117,32.41804519768785)"><svg viewBox="0 0 395.52 71.1593063583815" height="71.1593063583815" width="395.52"><g id="textblocktransform"><svg viewBox="0 0 395.52 71.1593063583815" height="71.1593063583815" width="395.52" id="textblock"><g><svg viewBox="0 0 395.52 71.1593063583815" height="71.1593063583815" width="395.52"><g transform="matrix(1,0,0,1,0,0)"><svg width="395.52" viewBox="1.22 -35.86 202.72 36.47" height="71.1593063583815" data-palette-color="#000000"><path d="M27.03 0L4.35 0Q1.22 0 1.22-2.61L1.22-2.61Q1.22-3.44 1.54-4.21 1.86-4.98 2.69-6.1L2.69-6.1 19.46-28.59 5.49-28.59Q4.91-28.59 4.61-28.78L4.61-28.78Q3.98-29.22 3.31-29.83 2.64-30.44 1.86-31.3L1.86-31.3Q1.61-31.62 1.61-31.81L1.61-31.81Q1.61-32.03 1.86-32.3L1.86-32.3Q2.64-33.15 3.31-33.76 3.98-34.38 4.61-34.81L4.61-34.81Q4.96-35.01 5.49-35.01L5.49-35.01 26.68-35.01Q29.88-35.01 29.88-32.37L29.88-32.37Q29.88-31.45 29.52-30.66 29.15-29.88 28.44-28.91L28.44-28.91 11.77-6.4 27.03-6.42Q27.61-6.42 27.91-6.23L27.91-6.23Q28.54-5.79 29.22-5.18 29.91-4.57 30.66-3.71L30.66-3.71Q30.91-3.39 30.91-3.2L30.91-3.2Q30.91-2.98 30.66-2.71L30.66-2.71Q29.91-1.86 29.22-1.25 28.54-0.63 27.91-0.2L27.91-0.2Q27.56 0 27.03 0L27.03 0ZM53.85 0L41.57 0Q39.06 0 37.75-0.63 36.45-1.27 36-2.71 35.54-4.15 35.54-6.54L35.54-6.54 35.54-28.47Q35.54-30.91 36-32.34 36.45-33.76 37.75-34.39 39.06-35.01 41.57-35.01L41.57-35.01 53.05-35.01Q53.64-35.01 53.93-34.81L53.93-34.81Q54.56-34.38 55.25-33.76 55.93-33.15 56.69-32.3L56.69-32.3Q56.93-31.98 56.93-31.79L56.93-31.79Q56.93-31.57 56.69-31.3L56.69-31.3Q55.93-30.44 55.25-29.83 54.56-29.22 53.93-28.78L53.93-28.78Q53.59-28.59 53.05-28.59L53.05-28.59 46.21-28.59Q44.6-28.59 44.02-27.91 43.43-27.22 43.43-25.56L43.43-25.56 43.43-20.83 52.19-20.83Q52.78-20.83 53.07-20.63L53.07-20.63Q53.71-20.19 54.39-19.58 55.08-18.97 55.83-18.12L55.83-18.12Q56.08-17.8 56.08-17.6L56.08-17.6Q56.08-17.38 55.83-17.11L55.83-17.11Q55.08-16.26 54.39-15.65 53.71-15.04 53.07-14.6L53.07-14.6Q52.73-14.4 52.19-14.4L52.19-14.4 43.43-14.4 43.43-9.47Q43.43-7.84 44.02-7.13 44.6-6.42 46.21-6.42L46.21-6.42 53.85-6.42Q54.44-6.42 54.73-6.23L54.73-6.23Q55.37-5.79 56.05-5.18 56.74-4.57 57.49-3.71L57.49-3.71Q57.74-3.39 57.74-3.2L57.74-3.2Q57.74-2.98 57.49-2.71L57.49-2.71Q56.74-1.86 56.05-1.25 55.37-0.63 54.73-0.2L54.73-0.2Q54.39 0 53.85 0L53.85 0ZM70.75-14.84L70.75-1.29Q70.75-0.56 70.44-0.28 70.14 0 69.4 0L69.4 0 64.2 0Q63.47 0 63.17-0.28 62.86-0.56 62.86-1.29L62.86-1.29 62.86-31.1Q62.86-31.81 63.11-32.18L63.11-32.18Q64.2-33.79 66.18-35.57L66.18-35.57Q66.55-35.86 66.82-35.86L66.82-35.86Q67.11-35.86 67.43-35.57L67.43-35.57Q68.5-34.64 69.23-33.8 69.97-32.96 70.5-32.18L70.5-32.18Q70.75-31.79 70.75-31.1L70.75-31.1 70.75-20.97 71.31-20.97Q74.36-20.97 76.26-21.81 78.17-22.66 79.19-24.08 80.22-25.51 80.6-27.27 80.98-29.03 80.98-30.86L80.98-30.86 80.98-31.1Q80.98-31.81 81.22-32.18L81.22-32.18Q82.32-33.79 84.3-35.57L84.3-35.57Q84.66-35.86 84.93-35.86L84.93-35.86Q85.22-35.86 85.54-35.57L85.54-35.57Q86.62-34.64 87.35-33.8 88.08-32.96 88.62-32.18L88.62-32.18Q88.86-31.79 88.86-31.1L88.86-31.1 88.86-30.86Q88.86-28.88 88.47-26.77 88.08-24.66 87.09-22.78 86.1-20.9 84.31-19.57 82.51-18.24 79.68-17.82L79.68-17.82 79.68-17.65Q82.22-16.85 84.21-14.98 86.2-13.11 87.65-10.72 89.11-8.33 90.03-5.91 90.96-3.49 91.35-1.59L91.35-1.59Q91.55-0.68 91.35-0.34 91.16 0 90.42 0L90.42 0 84.44 0Q83.2 0 82.98-1.15L82.98-1.15Q82.61-3 81.55-5.33 80.49-7.67 78.9-9.84 77.31-12.01 75.37-13.43 73.43-14.84 71.31-14.84L71.31-14.84 70.75-14.84ZM104.34-31.1L104.34-1.29Q104.34-0.56 104.03-0.28 103.73 0 103 0L103 0 97.8 0Q97.06 0 96.76-0.28 96.45-0.56 96.45-1.29L96.45-1.29 96.45-31.1Q96.45-31.81 96.7-32.18L96.7-32.18Q97.8-33.79 99.77-35.57L99.77-35.57Q100.14-35.86 100.41-35.86L100.41-35.86Q100.7-35.86 101.02-35.57L101.02-35.57Q102.09-34.64 102.82-33.8 103.56-32.96 104.09-32.18L104.09-32.18Q104.34-31.79 104.34-31.1L104.34-31.1ZM120.03-25.56L120.03-25.56 120.03-20 128.7-20Q129.29-20 129.58-19.8L129.58-19.8Q130.21-19.36 130.9-18.75 131.58-18.14 132.34-17.29L132.34-17.29Q132.58-16.97 132.58-16.77L132.58-16.77Q132.58-16.55 132.34-16.28L132.34-16.28Q131.58-15.43 130.9-14.82 130.21-14.21 129.58-13.77L129.58-13.77Q129.24-13.57 128.7-13.57L128.7-13.57 120.03-13.57 120.03-1.29Q120.03-0.56 119.73-0.28 119.42 0 118.69 0L118.69 0 113.49 0Q112.76 0 112.45-0.28 112.15-0.56 112.15-1.29L112.15-1.29 112.15-28.47Q112.15-30.91 112.6-32.34 113.05-33.76 114.36-34.39 115.66-35.01 118.18-35.01L118.18-35.01 129.7-35.01Q130.29-35.01 130.58-34.81L130.58-34.81Q131.22-34.38 131.9-33.76 132.58-33.15 133.34-32.3L133.34-32.3Q133.58-31.98 133.58-31.79L133.58-31.79Q133.58-31.57 133.34-31.3L133.34-31.3Q132.58-30.44 131.9-29.83 131.22-29.22 130.58-28.78L130.58-28.78Q130.24-28.59 129.7-28.59L129.7-28.59 122.82-28.59Q121.21-28.59 120.62-27.91 120.03-27.22 120.03-25.56ZM153.6 0.61L153.6 0.61Q148.52 0.61 144.76-1.34 141-3.3 138.94-7.23 136.88-11.16 136.88-17.04L136.88-17.04Q136.88-26.39 141.44-30.99 146.01-35.6 154.16-35.6L154.16-35.6Q161.8-35.6 166.25-31.09 170.69-26.59 170.69-17.75L170.69-17.75Q170.69-11.5 168.62-7.43 166.54-3.37 162.71-1.38 158.87 0.61 153.6 0.61ZM153.75-5.98L153.75-5.98Q158.14-5.98 160.27-9.13 162.39-12.28 162.39-17.31L162.39-17.31Q162.39-23.14 160.39-26.07 158.39-29 153.94-29L153.94-29Q145.18-29 145.18-17.46L145.18-17.46Q145.18-12.3 147.29-9.14 149.4-5.98 153.75-5.98ZM189.54-13.7L189.54-13.7Q185.8-11.65 184.27-9.08 182.75-6.52 182.75-2.64L182.75-2.64 182.75-1.29Q182.75-0.56 182.46-0.28 182.16 0 181.45 0L181.45 0 176.38 0Q175.69 0 175.39-0.28 175.08-0.56 175.08-1.29L175.08-1.29 175.08-2.64Q175.08-6.27 175.89-8.8 176.69-11.33 178.56-13.28 180.43-15.23 183.65-17.11L183.65-17.11Q179.99-19.21 177.9-22.18 175.82-25.15 175.82-28.74L175.82-28.74 175.82-31.1Q175.82-31.81 176.06-32.18L176.06-32.18Q177.16-33.79 179.14-35.57L179.14-35.57Q179.5-35.86 179.79-35.86L179.79-35.86Q180.09-35.86 180.4-35.57L180.4-35.57Q181.48-34.64 182.21-33.8 182.94-32.96 183.48-32.18L183.48-32.18Q183.73-31.79 183.73-31.1L183.73-31.1 183.73-28.74Q183.73-26.73 185.35-24.51 186.97-22.29 189.8-20.83L189.8-20.83Q192.61-22.27 193.83-24.29 195.05-26.32 195.05-28.74L195.05-28.74 195.05-31.1Q195.05-31.81 195.3-32.18L195.3-32.18Q196.35-33.76 198.28-35.57L198.28-35.57Q198.64-35.86 198.89-35.86L198.89-35.86Q199.18-35.86 199.5-35.57L199.5-35.57Q200.52-34.64 201.24-33.8 201.96-32.96 202.48-32.18L202.48-32.18Q202.72-31.79 202.72-31.1L202.72-31.1 202.72-28.74Q202.72-24.71 200.75-21.95 198.79-19.19 195.74-17.46L195.74-17.46Q198.62-15.75 200.42-13.78 202.23-11.82 203.09-9.14 203.94-6.47 203.94-2.64L203.94-2.64 203.94-1.29Q203.94-0.56 203.63-0.28 203.33 0 202.6 0L202.6 0 197.4 0Q196.66 0 196.36-0.28 196.05-0.56 196.05-1.29L196.05-1.29 196.05-2.64Q196.05-5.25 195.58-7.18 195.1-9.11 193.7-10.66 192.29-12.21 189.54-13.7Z" opacity="1" transform="matrix(1,0,0,1,0,0)" fill="#000000" class="wordmark-text-0" data-fill-palette-color="primary" id="text-0"></path></svg></g></svg></g></svg></g></svg></g><g><svg viewBox="0 0 143.8681265096399 135.9953967537572" height="135.9953967537572" width="143.8681265096399"><g><svg xmlns="http://www.w3.org/2000/svg" xmlns:xlink="http://www.w3.org/1999/xlink" version="1.1" x="0" y="0" viewBox="201 128.5 444.66700000000003 420.33399999999995" enable-background="new 0 0 841.89 595.28" xml:space="preserve" height="135.9953967537572" width="143.8681265096399" class="icon-icon-0" data-fill-palette-color="accent" id="icon-0"><g fill="#f38a24" data-fill-palette-color="accent"><g fill="#f38a24" data-fill-palette-color="accent"><path d="M423.667 548.833C416.167 548.333 413.834 539.166 413.834 539.166 410 526.166 398.667 517 398.667 517 378.333 498.167 296 447.5 296 447.5 270.5 436 216 419 216 419 204 413 201 399 201 399 206 399.5 227.5 390.5 227.5 390.5L201 359.5 227 350 201 326.5 230 309C211 163.5 339 128.5 339 128.5S329.5 266.5 347 282C347 282 382.834 254.5 423.667 253" fill="#f38a24" data-fill-palette-color="accent"></path><path d="M423 548.834C430.5 548.334 432.834 539.166 432.834 539.166 436.666 526.166 448 517 448 517 468.334 498.168 550.667 447.5 550.667 447.5 576.167 436 630.667 419 630.667 419 642.667 413 645.667 399 645.667 399 640.667 399.5 619.167 390.5 619.167 390.5L645.667 359.5 619.667 350 645.667 326.5 616.667 309C635.667 163.5 507.667 128.5 507.667 128.5S517.167 266.5 499.667 282C499.667 282 463.833 254.5 423 253" fill="#f38a24" data-fill-palette-color="accent"></path></g><path fill="#f38a24" d="M526.875 349C526.371 348.421 525.237 348.604 524.613 348.719 521.39 349.317 518.526 351.955 516.473 354.336 513.285 358.033 510.976 362.629 508.043 366.552 505.719 369.661 503.036 372.513 500.207 375.167 493.219 381.725 484.05 386.002 474.292 385.643 467.469 385.392 460.449 382.03 454.874 378.25 454.874 378.25 468.999 346.125 515.874 346.25 515.875 346.25 523.5 345.125 526.875 349" data-fill-palette-color="accent"></path><path fill="#f38a24" d="M331.347 349.455C331.851 348.876 332.985 349.059 333.609 349.174 336.832 349.772 339.696 352.41 341.749 354.791 344.937 358.488 347.246 363.084 350.179 367.007 352.503 370.116 355.186 372.968 358.015 375.622 365.003 382.18 374.172 386.457 383.93 386.098 390.753 385.847 397.773 382.485 403.348 378.705 403.348 378.705 389.223 346.58 342.348 346.705 342.347 346.705 334.722 345.58 331.347 349.455" data-fill-palette-color="accent"></path></g></svg></g></svg></g></svg></g><defs></defs></svg><rect width="395.52" height="96.71007532179763" fill="none" stroke="none" visibility="hidden"></rect></g></svg></g></svg>